<svg xmlns="http://www.w3.org/2000/svg" width="30" height="19" viewBox="0 0 30 19"><g><g><path fill="#fff" d="M4.087 8.5l10.845 7.091 10.915-7.138c.945-.617 2.477-.617 3.422 0 .944.618.944 1.62 0 2.238l-11.975 7.83c-.657.43-1.598.56-2.429.393-.791.128-1.663-.01-2.282-.414L.69 10.722c-.938-.614-.938-1.609 0-2.223.938-.613 2.46-.613 3.398 0zM6.997.362l7.953 5.158L22.955.33c.693-.45 1.816-.45 2.509 0 .693.449.693 1.177 0 1.627l-8.782 5.695c-.482.312-1.172.407-1.78.285-.581.094-1.22-.007-1.674-.3L4.505 1.978c-.688-.446-.688-1.17 0-1.616.688-.446 1.804-.446 2.492 0z"/></g></g></svg>